<?xml version="1.0" encoding="utf-8"?>
<!-- Generator: Adobe Illustrator 23.0.6, SVG Export Plug-In . SVG Version: 6.00 Build 0)  -->
<svg version="1.1" id="Capa_1" xmlns="http://www.w3.org/2000/svg" xmlns:xlink="http://www.w3.org/1999/xlink" x="0px" y="0px"
	 viewBox="0 0 260 120" style="enable-background:new 0 0 260 120;" xml:space="preserve">
<style type="text/css">
	.st0{fill:#E73845;}
	.st1{fill:#425363;}
	.st2{fill:#FFFFFF;}
</style>
<g>
	<path class="st0" d="M207,55.7l-10.6,4.6L181.7,83l-3.2,6l-74.9-1.4L89.6,67.8l-8-8.6l-13.8-2.6L44,56.8l-7.5,20.7L22,76.6v-5.2h0
		V45.7h81.1V2.6l38.7,2.2c4.5,0.2,8.6,2.8,10.8,6.7l13.1,23.2l64.5,8.7c7.4,1,13.4,6.6,14.9,13.9c0,0.1,0,0.2,0.1,0.3"/>
	<path class="st1" d="M178.7,89.2l-75.2-1.4l-0.1-0.1L89.4,67.9l-8-8.5l-13.7-2.6l-23.6,0.3l-7.5,20.7l-14.9-0.9l0-31.5h81.1V2.3
		l39,2.2c4.6,0.3,8.7,2.8,11,6.8l13,23.1l64.4,8.7c7.5,1,13.6,6.7,15.1,14.1l0.1,0.3l-0.5,0.1l-0.1-0.3c-1.5-7.2-7.4-12.7-14.7-13.7
		L165.5,35l-13.2-23.4c-2.2-3.9-6.1-6.3-10.6-6.6l-38.4-2.2v43H22.3l0,30.5l14.1,0.8l7.5-20.7l24-0.3l13.9,2.6l8.1,8.7l14,19.7
		l74.6,1.4l3.1-5.9l14.7-22.8l10.7-4.6l0.2,0.5l-10.5,4.6L182,83.1L178.7,89.2z"/>
</g>
<g>
	<path class="st1" d="M22,45.6l4.3-36.5c0.5-4.3,4.1-7.5,8.4-7.4l68.4,0.9v43.1L22,45.6L22,45.6z"/>
	<path class="st1" d="M103.4,45.9H21.8l0-0.3L26,9.1c0.5-4.4,4.3-7.7,8.7-7.6l68.6,0.9V45.9z M22.3,45.4h80.5V2.9L34.7,1.9
		c-4.2-0.1-7.7,3-8.2,7.2L22.3,45.4z"/>
</g>
<g>
	<path class="st2" d="M162,80.3h-58.3l-0.8-34.7V8.4l40.3,1.6c2.2,0.1,4.1,1.3,5,3.3L162,41.8V80.3z M104.2,79.8h57.3V41.9
		l-13.8-28.4c-0.9-1.8-2.6-2.9-4.6-3L103.4,9v36.7L104.2,79.8z"/>
</g>
<g>
	<g>
		<path class="st2" d="M154.9,39.2L143,16.4c-0.3-0.7-0.9-1.1-1.5-1.2l-30.7-1.5c-1,0-1.8,0.9-1.8,2v24.3c0,1.1,0.8,2,1.8,2h42.7
			C154.6,42.1,155.5,40.5,154.9,39.2z"/>
		<path class="st1" d="M153.3,42.3h-42.7c-1.1,0-2-1-2-2.3V15.8c0-0.7,0.3-1.3,0.7-1.7c0.4-0.4,0.9-0.6,1.4-0.5l30.7,1.5
			c0.8,0,1.4,0.5,1.8,1.3l11.9,22.8c0.3,0.8,0.2,1.6-0.2,2.3C154.5,42,153.9,42.3,153.3,42.3z M110.6,14c-0.3,0-0.7,0.1-1,0.4
			c-0.4,0.3-0.6,0.8-0.6,1.4v24.3c0,1,0.7,1.8,1.5,1.8h42.7c0.5,0,0.9-0.2,1.2-0.7c0.4-0.5,0.4-1.2,0.2-1.8l-11.9-22.8
			c-0.3-0.6-0.8-1-1.3-1L110.6,14C110.7,14,110.7,14,110.6,14z"/>
	</g>
	<g>
		<path class="st2" d="M99.8,86.6c-1.3,0-2.5-0.7-3.1-2c-4.3-9.1-14.5-21.4-14.6-21.5c0,0,0,0,0,0c-1.5-1.8-3.6-2.9-5.9-2.9H49.8
			c-2.2,0-4.3,1.3-5.3,3.3l-5.3,10.9c-0.8,1.7-2.9,2.4-4.6,1.6c-1.7-0.8-4.4,0.8-3.6-0.9l7.4-14.7c2.1-4.4,6.6-7.2,11.5-7.2H77
			c4.2,0,8.1,2,10.5,5.5c1.2,1.4,13.8,17.8,18.3,27.3c0.8,1.7-2.8-0.7-4.6,0.1C100.7,86.6,100.2,86.6,99.8,86.6z"/>
		<path class="st1" d="M105.6,87.1c-0.3,0-0.8-0.1-1.3-0.3c-1-0.3-2.2-0.6-2.9-0.3c-0.5,0.2-1,0.3-1.6,0.3c-1.4,0-2.7-0.8-3.3-2.1
			c-4-8.6-13.4-20.2-14.5-21.4c0,0,0,0-0.1-0.1c-1.4-1.7-3.5-2.7-5.7-2.7H49.8c-2.1,0-4.1,1.2-5.1,3.2l-5.3,10.9
			c-0.9,1.8-3.1,2.6-4.9,1.7c-0.7-0.3-1.6-0.2-2.4-0.1c-0.7,0.1-1.2,0.2-1.4-0.2c-0.2-0.3,0-0.7,0.1-0.9l7.4-14.7
			c2.2-4.4,6.8-7.3,11.7-7.3H77c4.3,0,8.3,2.1,10.7,5.6c1.3,1.5,13.8,17.8,18.3,27.4c0.1,0.2,0.2,0.6,0,0.8
			C105.9,87.1,105.8,87.1,105.6,87.1z M102.1,85.9c0.7,0,1.6,0.2,2.3,0.4c0.5,0.1,1.1,0.3,1.2,0.3c0,0,0-0.1-0.1-0.3
			c-4.5-9.5-17-25.7-18.3-27.3c-2.4-3.4-6.2-5.4-10.3-5.4H49.8c-4.7,0-9.2,2.8-11.2,7l-7.4,14.7c-0.2,0.3-0.1,0.4-0.1,0.4
			c0.1,0.1,0.6,0,1-0.1c0.8-0.1,1.8-0.3,2.7,0.2c1.6,0.8,3.5,0.1,4.2-1.5l5.3-10.9c1-2.1,3.2-3.5,5.5-3.5h26.4c2.3,0,4.5,1.1,6.1,3
			l0.1,0.1c1.1,1.4,10.5,12.9,14.6,21.5c0.5,1.1,1.7,1.8,2.9,1.8c0.5,0,0.9-0.1,1.4-0.3C101.4,86,101.8,85.9,102.1,85.9z"/>
	</g>
	<g>
		<rect x="96.6" y="84.6" class="st2" width="85.8" height="11.2"/>
		<path class="st1" d="M182.7,96.1H96.4V84.4h86.3V96.1z M96.9,95.5h85.3V84.9H96.9V95.5z"/>
	</g>
</g>
<g>
	<circle class="st1" cx="65.5" cy="93.3" r="25.5"/>
	<path class="st1" d="M65.5,119.1c-14.2,0-25.7-11.5-25.7-25.7s11.5-25.7,25.7-25.7c14.2,0,25.7,11.5,25.7,25.7
		S79.7,119.1,65.5,119.1z M65.5,68.1c-13.9,0-25.2,11.3-25.2,25.2s11.3,25.2,25.2,25.2c13.9,0,25.2-11.3,25.2-25.2
		S79.4,68.1,65.5,68.1z"/>
</g>
<g>
	<circle class="st2" cx="65.5" cy="93.3" r="15.2"/>
	<path class="st1" d="M65.5,108.8c-8.5,0-15.4-6.9-15.4-15.4S57,77.9,65.5,77.9c8.5,0,15.4,6.9,15.4,15.4S74,108.8,65.5,108.8z
		 M65.5,78.4c-8.2,0-14.9,6.7-14.9,14.9s6.7,14.9,14.9,14.9s14.9-6.7,14.9-14.9S73.7,78.4,65.5,78.4z"/>
</g>
<g>
	<circle class="st1" cx="214.7" cy="93.3" r="25.5"/>
	<path class="st1" d="M214.7,119.1c-14.2,0-25.7-11.5-25.7-25.7s11.5-25.7,25.7-25.7c14.2,0,25.7,11.5,25.7,25.7
		S228.9,119.1,214.7,119.1z M214.7,68.1c-13.9,0-25.2,11.3-25.2,25.2s11.3,25.2,25.2,25.2c13.9,0,25.2-11.3,25.2-25.2
		S228.6,68.1,214.7,68.1z"/>
</g>
<g>
	<circle class="st2" cx="214.7" cy="93.3" r="15.2"/>
	<path class="st1" d="M214.7,108.8c-8.5,0-15.4-6.9-15.4-15.4s6.9-15.4,15.4-15.4c8.5,0,15.4,6.9,15.4,15.4S223.2,108.8,214.7,108.8
		z M214.7,78.4c-8.2,0-14.9,6.7-14.9,14.9s6.7,14.9,14.9,14.9c8.2,0,14.9-6.7,14.9-14.9S222.9,78.4,214.7,78.4z"/>
</g>
<g>
	<path class="st1" d="M249.9,86.9h-5.6V69.6h5.6c4.8,0,8.6,3.9,8.6,8.6l0,0C258.5,83,254.6,86.9,249.9,86.9z"/>
	<path class="st1" d="M249.9,87.1h-5.8V69.4h5.8c4.9,0,8.9,4,8.9,8.9S254.8,87.1,249.9,87.1z M244.6,86.6h5.3c4.6,0,8.4-3.8,8.4-8.4
		s-3.8-8.4-8.4-8.4h-5.3V86.6z"/>
</g>
<g>
	<path class="st1" d="M12.9,77.3H5.1c-2.4,0-4.4-2-4.4-4.4V30.3c0-2.4,2-4.4,4.4-4.4h7.7c2.5,0,4.4,2,4.4,4.4v42.6
		C17.3,75.3,15.3,77.3,12.9,77.3z"/>
	<path class="st1" d="M12.9,77.6H5.1c-2.6,0-4.7-2.1-4.7-4.7V30.3c0-2.6,2.1-4.7,4.7-4.7h7.7c2.6,0,4.7,2.1,4.7,4.7v42.6
		c0,1.3-0.5,2.4-1.4,3.3C15.3,77.1,14.1,77.6,12.9,77.6z M5.1,26.1c-2.3,0-4.2,1.9-4.2,4.2v42.6c0,2.3,1.9,4.2,4.2,4.2h7.7
		c1.1,0,2.2-0.4,3-1.2c0.8-0.8,1.2-1.8,1.2-3V30.3c0-2.3-1.9-4.2-4.2-4.2H5.1z"/>
</g>
<g>
	<g>
		<path class="st1" d="M20.1,73h19.8l-5.6,13.2H20.1c-1.1,0-2-0.9-2-2V75C18.1,73.9,19,73,20.1,73z"/>
		<path class="st1" d="M34.5,86.5H20.1c-1.2,0-2.2-1-2.2-2.2V75c0-1.2,1-2.2,2.2-2.2h20.2L34.5,86.5z M20.1,73.3
			c-0.9,0-1.7,0.8-1.7,1.7v9.3c0,0.9,0.8,1.7,1.7,1.7h14.1l5.4-12.7H20.1z"/>
	</g>
	<g>
		<path class="st2" d="M248.4,65.9c0-0.1,0-0.1,0-0.2v0h0c-0.3-6.8-5.9-12.3-12.8-12.3H204c-4.6,0-9,1.9-12,5.3
			c-4.8,5.3-11.6,14.1-17.3,26c-0.8,1.7-0.1,3.8,1.6,4.6c0.5,0.2,1,0.3,1.5,0.3c1.3,0,2.5-0.7,3.1-2c5.3-11.1,11.7-19.4,16.2-24.3
			c1.8-2,4.3-3.1,6.9-3.1h31.6c3.1,0,5.7,2.5,5.9,5.6v21h6.9L248.4,65.9L248.4,65.9z"/>
		<path class="st1" d="M177.8,89.9c-0.5,0-1.1-0.1-1.6-0.4c-1.8-0.9-2.6-3.1-1.8-4.9c5.6-11.9,12.5-20.8,17.3-26.1
			c3.1-3.5,7.6-5.4,12.2-5.4h31.6c7,0,12.7,5.5,13,12.5l0,0.4h0v21h-7.4V65.9c-0.2-3-2.7-5.3-5.7-5.3H204c-2.6,0-5,1.1-6.7,3
			c-4.4,4.9-10.9,13.2-16.1,24.3C180.6,89.1,179.3,89.9,177.8,89.9z M204,53.7c-4.5,0-8.8,1.9-11.8,5.3
			c-4.8,5.3-11.6,14.1-17.2,25.9c-0.8,1.6-0.1,3.5,1.5,4.2c0.4,0.2,0.9,0.3,1.4,0.3c1.2,0,2.4-0.7,2.9-1.8
			c5.3-11.2,11.7-19.4,16.2-24.4c1.8-2,4.4-3.2,7.1-3.2h31.6c3.3,0,6,2.6,6.2,5.8l0,20.8h6.4V65.7c-0.3-6.8-5.8-12.1-12.5-12.1H204z
			"/>
	</g>
</g>
<g>
	<rect x="14.6" y="45.8" class="st2" width="9.6" height="17.9"/>
	<path class="st1" d="M24.4,63.9H14.3V45.5h10.1V63.9z M14.8,63.4h9.1V46h-9.1V63.4z"/>
</g>
<g>
	<path class="st2" d="M92.5,38.6H38.7c-2.4,0-4.3-2-4.1-4.4l1.2-20.7c0.1-2.2,1.9-3.9,4.1-3.9h52.5c2.3,0,4.2,1.9,4.2,4.2v20.7
		C96.6,36.7,94.8,38.6,92.5,38.6z"/>
	<path class="st1" d="M92.5,38.8H38.7c-1.2,0-2.4-0.5-3.2-1.4c-0.8-0.9-1.3-2.1-1.2-3.3l1.2-20.7c0.1-2.3,2.1-4.1,4.4-4.1h52.5
		c2.4,0,4.4,2,4.4,4.4v20.7C96.9,36.9,94.9,38.8,92.5,38.8z M39.9,9.8c-2.1,0-3.8,1.6-3.9,3.7l-1.2,20.7c-0.1,1.1,0.3,2.1,1.1,2.9
		c0.7,0.8,1.8,1.2,2.8,1.2h53.8c2.2,0,3.9-1.7,3.9-3.9V13.7c0-2.2-1.8-3.9-3.9-3.9H39.9z"/>
</g>
</svg>
